<?xml version="1.0" encoding="utf-8"?>
<!-- Generator: Adobe Illustrator 24.3.0, SVG Export Plug-In . SVG Version: 6.00 Build 0)  -->
<svg version="1.1" id="Layer_1" xmlns="http://www.w3.org/2000/svg" xmlns:xlink="http://www.w3.org/1999/xlink" x="0px" y="0px"
	 viewBox="0 0 512 512" style="enable-background:new 0 0 512 512;" xml:space="preserve">
<style type="text/css">
	.st0{fill:#ffffff;}
	.st1{fill:#74BB11;}
	.st2{fill:#009CD9;}
	.st3{fill:#EB2084;}
</style>
<g id="XMLID_1_">
	<path id="XMLID_4_" class="st0" d="M465.23,194.96c-20.91,0-32.69,4.07-39.57,13.47c-7.16,9.82-8.56,25.54-8.56,47.43
		c0,43.22,6.73,61.18,47.99,61.18c4.91,0,21.89-0.14,31.85-1.26c3.79-0.7,5.61-3.65,5.61-6.17v-4.77c0-3.65-2.81-6.45-6.45-6.45
		h-30.87c-23.29,0-27.5-5.47-28.2-36.76v-10.1c0.14-31.99,4.35-37.6,28.2-37.6c21.89,0,26.1,5.05,26.8,33.11h-34.8v19.08h45.74
		c8.98,0,8.98-6.31,8.98-8.42v-6.03C511.39,207.59,501.01,194.96,465.23,194.96"/>
	<path id="XMLID_5_" class="st0" d="M405.03,196.65l-0.56-0.14c-4.21-0.84-15.86-1.54-21.75-1.54c-20.49,0-31.29,8.56-31.29,24.69
		v90.08c0,3.65,2.67,6.31,6.31,6.31h7.3c3.79,0,6.31-2.53,6.31-6.31v-88.4c0-3.93,0.98-7.58,13.19-7.58h18.1
		c1.82,0.28,3.51-0.28,4.77-1.4c1.4-1.26,2.25-2.95,2.25-4.91v-4.49C409.8,199.88,407.98,197.63,405.03,196.65"/>
	<path id="XMLID_6_" class="st0" d="M317.76,196.37h-7.3c-3.79,0-6.31,2.53-6.31,6.31v95.55h-30.17c-18.66,0-26.24-1.12-26.24-31.01
		v-64.54c0-3.65-2.67-6.31-6.31-6.31h-7.02c-3.79,0-6.45,2.67-6.45,6.31v64.54c0,42.37,15.29,49.81,47.57,49.81
		c11.65,0,27.5,0,42.65-2.1l0.28-0.14c3.79-0.98,5.61-3.09,5.61-6.31v-105.8C324.07,198.89,321.55,196.37,317.76,196.37"/>
	<path id="XMLID_7_" class="st1" d="M205.37,199.31L205.37,199.31c-0.98-1.96-2.95-3.23-5.33-3.23h-9.4c-2.67,0-4.77,1.12-5.75,3.09
		l-13.89,20.2l12.07,16.56l21.19-30.31C206.63,202.82,205.79,200.3,205.37,199.31"/>
	<path id="XMLID_8_" class="st2" d="M132.4,199.03L132.4,199.03c-2.1-2.81-4.91-2.81-5.89-2.81h-9.12c-2.39,0-4.21,1.12-5.19,2.95
		c-0.98,1.96-0.84,4.21,0.56,6.31l33.82,46.86l-38.87,54.3c-1.4,2.1-1.54,4.35-0.56,6.17c0.98,1.82,2.95,2.95,5.19,2.95h9.4
		c2.39,0,4.49-1.26,5.61-3.23l43.5-60.05L132.4,199.03z"/>
	<path id="XMLID_9_" class="st3" d="M210,307.07l-27.22-37.32l-11.93,16.42l21.47,28.62l0.56,0.28c0.98,0.42,1.82,0.56,2.67,0.56
		h9.12c2.25,0,4.07-0.98,5.19-2.67C211.12,311.42,211.12,309.18,210,307.07"/>
	<path id="XMLID_13_" class="st0" d="M71.79,265.12v31.57c-9.26,1.4-23.29,1.68-28.2,1.68c-21.19,0-23.57-5.75-23.57-18.1
		c0-11.51,4.35-15.29,17.82-15.29h33.96V265.12z M42.6,194.96c-6.59,0-15.57,0.14-26.66,1.54l-0.56,0.14
		c-3.23,0.98-4.91,3.09-4.91,6.31v4.49c0,3.93,2.39,6.31,6.31,6.31h25.68c20.77,0,29.18,5.61,29.18,19.36v13.33H37.83
		c-26.52,0-37.88,10.1-37.88,33.82c0,26.38,11.79,36.76,41.81,36.76c12.21,0,34.66-0.98,42.94-3.51c7.02-1.96,7.02-7.3,7.02-8.98
		v-72.68C91.71,207.03,75.58,194.96,42.6,194.96z"/>
</g>
</svg>
