<svg version="1.1" viewBox="0.0 0.0 480.0 288.0" fill="none" stroke="none" stroke-linecap="square" stroke-miterlimit="10" xmlns:xlink="http://www.w3.org/1999/xlink" xmlns="http://www.w3.org/2000/svg"><clipPath id="p.0"><path d="m0 0l480.0 0l0 288.0l-480.0 0l0 -288.0z" clip-rule="nonzero"/></clipPath><g clip-path="url(#p.0)"><path fill="#000000" fill-opacity="0.0" d="m0 0l480.0 0l0 288.0l-480.0 0z" fill-rule="evenodd"/><path fill="#000000" fill-opacity="0.0" d="m0 -32.0l480.0 0l0 288.0l-480.0 0z" fill-rule="evenodd"/><path fill="#00ff00" d="m58.672485 57.600006l0 -133.73438l20.40625 0l0 133.73438l-20.40625 0zm40.796875 0l0 -133.73438l20.40625 0l0 133.73438l-20.40625 0zm27.203125 0l0 -133.73438l6.796875 0l0 133.73438l-6.796875 0zm13.59375 0l0 -133.73438l6.796875 0l0 133.73438l-6.796875 0zm13.609375 0l0 -133.73438l6.796875 0l0 133.73438l-6.796875 0zm-60.53125 19.71875l5.4375 0l5.671875 35.578125l8.609375 -31.734375l1.8125 0l8.390625 31.96875l4.75 -35.8125l5.0 0l-8.171875 52.578125l-2.265625 0l-9.0625 -34.21875l-9.296875 34.21875l-2.484375 0l-8.390625 -52.578125z" fill-rule="nonzero"/><path fill="#00ff00" d="m167.46747 -27.399994l0 -89.15625l4.53125 0l0 89.15625l-4.53125 0zm9.0625 0l0 -89.15625l13.609375 0l0 89.15625l-13.609375 0zm27.203125 0l0 -89.15625l4.53125 0l0 89.15625l-4.53125 0zm9.0625 0l0 -89.15625l4.53125 0l0 89.15625l-4.53125 0zm9.078125 0l0 -89.15625l13.59375 0l0 89.15625l-13.59375 0zm-28.109375 45.03125l4.53125 -4.53125q4.53125 -4.53125 6.796875 -7.25q2.28125 -2.578125 3.640625 -5.140625q1.359375 -2.421875 1.359375 -5.296875q0 -3.3125 -1.515625 -4.828125q-1.671875 -1.515625 -4.390625 -1.515625q-4.21875 0 -7.09375 3.484375q-0.609375 0.90625 -0.609375 1.5q0 0.453125 0 0.609375l-0.296875 0.296875l-0.296875 -0.296875l-2.875 -2.265625q1.65625 -3.328125 4.53125 -4.984375q2.875 -1.8125 6.640625 -1.8125q4.390625 0 7.265625 2.71875q2.71875 2.71875 2.71875 7.25q0 3.015625 -1.515625 5.890625q-1.359375 2.875 -3.625 5.4375q-2.265625 2.578125 -6.34375 6.65625l-3.78125 3.78125l13.0 0q0.90625 0 1.359375 0q0.296875 -0.15625 0.75 -0.453125l0.296875 0l0 3.921875l-20.546875 0l0 -3.171875z" fill-rule="nonzero"/><path fill="#00ff00" d="m240.00002 57.600006l0 -133.73438l6.796875 0l0 133.73438l-6.796875 0zm13.59375 0l0 -133.73438l20.406235 0l0 133.73438l-20.406235 0zm27.20311 0l0 -133.73438l20.40625 0l0 133.73438l-20.40625 0zm27.203125 0l0 -133.73438l6.796875 0l0 133.73438l-6.796875 0zm27.203125 0l0 -133.73438l6.796875 0l0 133.73438l-6.796875 0zm-56.90625 19.71875l16.78125 0q8.375 0 12.453125 4.296875q4.3125 4.078125 4.3125 10.65625q0 6.34375 -4.078125 10.421875q-4.078125 4.078125 -12.234375 4.078125l-11.109375 0l0 23.125l-6.125 0l0 -52.578125zm16.546875 24.25q5.671875 0 8.15625 -2.5q2.71875 -2.265625 2.71875 -6.5625q0 -4.3125 -2.71875 -6.8125q-2.71875 -2.71875 -7.921875 -2.71875l-10.65625 0l0 18.59375l10.421875 0z" fill-rule="nonzero"/><path fill="#00ff00" d="m348.79498 -27.399994l0 -89.15625l4.53125 0l0 89.15625l-4.53125 0zm9.0625 0l0 -89.15625l13.609375 0l0 89.15625l-13.609375 0zm27.203125 0l0 -89.15625l4.53125 0l0 89.15625l-4.53125 0zm9.0625 0l0 -89.15625l4.53125 0l0 89.15625l-4.53125 0zm9.078125 0l0 -89.15625l13.59375 0l0 89.15625l-13.59375 0zm-28.109375 45.03125l4.53125 -4.53125q4.53125 -4.53125 6.796875 -7.25q2.28125 -2.578125 3.640625 -5.140625q1.359375 -2.421875 1.359375 -5.296875q0 -3.3125 -1.515625 -4.828125q-1.671875 -1.515625 -4.390625 -1.515625q-4.21875 0 -7.09375 3.484375q-0.609375 0.90625 -0.609375 1.5q0 0.453125 0 0.609375l-0.296875 0.296875l-0.296875 -0.296875l-2.875 -2.265625q1.65625 -3.328125 4.53125 -4.984375q2.875 -1.8125 6.640625 -1.8125q4.390625 0 7.265625 2.71875q2.71875 2.71875 2.71875 7.25q0 3.015625 -1.515625 5.890625q-1.359375 2.875 -3.625 5.4375q-2.265625 2.578125 -6.34375 6.65625l-3.78125 3.78125l13.0 0q0.90625 0 1.359375 0q0.296875 -0.15625 0.75 -0.453125l0.296875 0l0 3.921875l-20.546875 0l0 -3.171875z" fill-rule="nonzero"/><path fill="#00ff00" d="m185.60251 329.6l0 -133.73438l20.40625 0l0 133.73438l-20.40625 0zm27.203125 0l0 -133.73438l20.390625 0l0 133.73438l-20.390625 0zm27.1875 0l0 -133.73438l6.8125 0l0 133.73438l-6.8125 0zm27.203125 0l0 -133.73438l6.796875 0l0 133.73438l-6.796875 0zm13.609375 0l0 -133.73438l6.796875 0l0 133.73438l-6.796875 0zm-37.859375 73.203125q-5.90625 0 -10.4375 -2.953125q-4.75 -2.9375 -7.46875 -8.828125q-2.71875 -6.125 -2.71875 -15.1875q0 -9.515625 2.9375 -15.640625q2.953125 -5.890625 7.484375 -8.609375q4.53125 -2.5 9.75 -2.5q5.65625 0 9.734375 2.71875q4.078125 2.71875 6.125 7.484375l-4.984375 2.484375l-0.6875 0.234375l-0.21875 -0.453125l0 -0.6875q0 -0.90625 -1.140625 -2.484375q-1.8125 -2.5 -4.078125 -3.625q-2.265625 -1.140625 -4.75 -1.140625q-6.8125 0 -10.65625 5.890625q-3.625 5.671875 -3.625 16.09375q0 6.34375 1.8125 11.5625q2.03125 4.984375 5.203125 7.703125q3.40625 2.71875 7.484375 2.71875q3.171875 0 5.890625 -1.578125q2.953125 -1.8125 4.765625 -4.765625l4.3125 2.953125q-2.734375 4.296875 -6.125 6.34375q-3.625 2.265625 -8.609375 2.265625z" fill-rule="nonzero"/></g></svg>