<svg version="1.1" viewBox="0.0 0.0 480.0 288.0" fill="none" stroke="none" stroke-linecap="square" stroke-miterlimit="10" xmlns:xlink="http://www.w3.org/1999/xlink" xmlns="http://www.w3.org/2000/svg"><clipPath id="p.0"><path d="m0 0l480.0 0l0 288.0l-480.0 0l0 -288.0z" clip-rule="nonzero"/></clipPath><g clip-path="url(#p.0)"><path fill="#000000" fill-opacity="0.0" d="m0 0l480.0 0l0 288.0l-480.0 0z" fill-rule="evenodd"/><path fill="#000000" fill-opacity="0.0" d="m0 -32.0l480.0 0l0 288.0l-480.0 0z" fill-rule="evenodd"/><path fill="#00ff00" d="m18.13974 188.79999l0 -125.859375l19.203125 0l0 125.859375l-19.203125 0zm38.40625 0l0 -125.859375l19.1875 0l0 125.859375l-19.1875 0zm25.59375 0l0 -125.859375l6.390625 0l0 125.859375l-6.390625 0zm12.796875 0l0 -125.859375l6.40625 0l0 125.859375l-6.40625 0zm12.796875 0l0 -125.859375l6.40625 0l0 125.859375l-6.40625 0zm-56.953125 18.5625l5.125 0l5.328125 33.484375l8.109375 -29.859375l1.703125 0l7.890625 30.078125l4.484375 -33.703125l4.6875 0l-7.671875 49.484375l-2.140625 0l-8.53125 -32.21875l-8.75 32.21875l-2.34375 0l-7.890625 -49.484375z" fill-rule="nonzero"/><path fill="#00ff00" d="m120.53725 108.79999l0 -83.90625l4.265625 0l0 83.90625l-4.265625 0zm8.53125 0l0 -83.90625l12.796875 0l0 83.90625l-12.796875 0zm25.59375 0l0 -83.90625l4.28125 0l0 83.90625l-4.28125 0zm8.546875 0l0 -83.90625l4.265625 0l0 83.90625l-4.265625 0zm8.53125 0l0 -83.90625l12.796875 0l0 83.90625l-12.796875 0zm-26.453125 42.390625l4.265625 -4.265625q4.265625 -4.265625 6.390625 -6.828125q2.140625 -2.421875 3.421875 -4.84375q1.28125 -2.265625 1.28125 -4.96875q0 -3.125 -1.421875 -4.546875q-1.5625 -1.421875 -4.125 -1.421875q-3.984375 0 -6.6875 3.265625q-0.5625 0.859375 -0.5625 1.421875q0 0.421875 0 0.5625l-0.296875 0.296875l-0.28125 -0.296875l-2.703125 -2.125q1.5625 -3.125 4.265625 -4.703125q2.703125 -1.703125 6.265625 -1.703125q4.125 0 6.828125 2.5625q2.5625 2.5625 2.5625 6.828125q0 2.84375 -1.421875 5.546875q-1.28125 2.703125 -3.421875 5.125q-2.125 2.40625 -5.96875 6.25l-3.5625 3.5625l12.234375 0q0.859375 0 1.28125 0q0.28125 -0.140625 0.703125 -0.4375l0.296875 0l0 3.703125l-19.34375 0l0 -2.984375z" fill-rule="nonzero"/><path fill="#00ff00" d="m188.80124 188.79999l0 -125.859375l6.40625 0l0 125.859375l-6.40625 0zm12.796875 0l0 -125.859375l19.203125 0l0 125.859375l-19.203125 0zm25.609375 0l0 -125.859375l19.1875 0l0 125.859375l-19.1875 0zm25.59375 0l0 -125.859375l6.390625 0l0 125.859375l-6.390625 0zm25.59375 0l0 -125.859375l6.40625 0l0 125.859375l-6.40625 0zm-53.546875 18.5625l15.796875 0q7.890625 0 11.734375 4.046875q4.046875 3.84375 4.046875 10.03125q0 5.96875 -3.84375 9.8125q-3.828125 3.828125 -11.515625 3.828125l-10.453125 0l0 21.765625l-5.765625 0l0 -49.484375zm15.578125 22.8125q5.328125 0 7.6875 -2.34375q2.546875 -2.125 2.546875 -6.1875q0 -4.046875 -2.546875 -6.390625q-2.5625 -2.5625 -7.46875 -2.5625l-10.03125 0l0 17.484375l9.8125 0z" fill-rule="nonzero"/><path fill="#00ff00" d="m291.19876 108.79999l0 -83.90625l4.265625 0l0 83.90625l-4.265625 0zm8.53125 0l0 -83.90625l12.796875 0l0 83.90625l-12.796875 0zm25.59375 0l0 -83.90625l4.28125 0l0 83.90625l-4.28125 0zm8.546875 0l0 -83.90625l4.265625 0l0 83.90625l-4.265625 0zm8.53125 0l0 -83.90625l12.796875 0l0 83.90625l-12.796875 0zm-26.453125 42.390625l4.265625 -4.265625q4.265625 -4.265625 6.390625 -6.828125q2.140625 -2.421875 3.421875 -4.84375q1.28125 -2.265625 1.28125 -4.96875q0 -3.125 -1.421875 -4.546875q-1.5625 -1.421875 -4.125 -1.421875q-3.984375 0 -6.6875 3.265625q-0.5625 0.859375 -0.5625 1.421875q0 0.421875 0 0.5625l-0.296875 0.296875l-0.28125 -0.296875l-2.703125 -2.125q1.5625 -3.125 4.265625 -4.703125q2.703125 -1.703125 6.265625 -1.703125q4.125 0 6.828125 2.5625q2.5625 2.5625 2.5625 6.828125q0 2.84375 -1.421875 5.546875q-1.28125 2.703125 -3.421875 5.125q-2.125 2.40625 -5.96875 6.25l-3.5625 3.5625l12.234375 0q0.859375 0 1.28125 0q0.28125 -0.140625 0.703125 -0.4375l0.296875 0l0 3.703125l-19.34375 0l0 -2.984375z" fill-rule="nonzero"/><path fill="#00ff00" d="m359.46274 188.79999l0 -125.859375l19.203125 0l0 125.859375l-19.203125 0zm25.59375 0l0 -125.859375l19.203125 0l0 125.859375l-19.203125 0zm25.609375 0l0 -125.859375l6.390625 0l0 125.859375l-6.390625 0zm25.59375 0l0 -125.859375l6.40625 0l0 125.859375l-6.40625 0zm12.796875 0l0 -125.859375l6.40625 0l0 125.859375l-6.40625 0zm-35.625 68.90625q-5.546875 0 -9.8125 -2.78125q-4.484375 -2.765625 -7.03125 -8.3125q-2.5625 -5.765625 -2.5625 -14.296875q0 -8.96875 2.765625 -14.71875q2.78125 -5.546875 7.046875 -8.109375q4.265625 -2.34375 9.171875 -2.34375q5.328125 0 9.171875 2.5625q3.84375 2.5625 5.765625 7.03125l-4.703125 2.34375l-0.640625 0.21875l-0.203125 -0.421875l0 -0.640625q0 -0.859375 -1.078125 -2.34375q-1.703125 -2.359375 -3.828125 -3.421875q-2.140625 -1.0625 -4.484375 -1.0625q-6.40625 0 -10.03125 5.546875q-3.40625 5.328125 -3.40625 15.140625q0 5.984375 1.703125 10.890625q1.921875 4.6875 4.90625 7.25q3.203125 2.5625 7.046875 2.5625q2.984375 0 5.546875 -1.5q2.765625 -1.703125 4.46875 -4.484375l4.0625 2.78125q-2.5625 4.046875 -5.765625 5.96875q-3.40625 2.140625 -8.109375 2.140625z" fill-rule="nonzero"/></g></svg>